<?xml version="1.0" standalone="no"?>
<!DOCTYPE svg PUBLIC "-//W3C//DTD SVG 1.1//EN" "http://www.w3.org/Graphics/SVG/1.1/DTD/svg11.dtd" >
<!--
2013-9-30: Created.
-->
<svg>
<metadata>
Created by iconfont
</metadata>
<defs>

<font id="iconfont" horiz-adv-x="1024" >
  <font-face
    font-family="iconfont"
    font-weight="500"
    font-stretch="normal"
    units-per-em="1024"
    ascent="896"
    descent="-128"
  />
    <missing-glyph />
    
    <glyph glyph-name="x" unicode="x" horiz-adv-x="1001"
d="M281 543q-27 -1 -53 -1h-83q-18 0 -36.5 -6t-32.5 -18.5t-23 -32t-9 -45.5v-76h912v41q0 16 -0.5 30t-0.5 18q0 13 -5 29t-17 29.5t-31.5 22.5t-49.5 9h-133v-97h-438v97zM955 310v-52q0 -23 0.5 -52t0.5 -58t-10.5 -47.5t-26 -30t-33 -16t-31.5 -4.5q-14 -1 -29.5 -0.5
t-29.5 0.5h-32l-45 128h-439l-44 -128h-29h-34q-20 0 -45 1q-25 0 -41 9.5t-25.5 23t-13.5 29.5t-4 30v167h911zM163 247q-12 0 -21 -8.5t-9 -21.5t9 -21.5t21 -8.5q13 0 22 8.5t9 21.5t-9 21.5t-22 8.5zM316 123q-8 -26 -14 -48q-5 -19 -10.5 -37t-7.5 -25t-3 -15t1 -14.5
t9.5 -10.5t21.5 -4h37h67h81h80h64h36q23 0 34 12t2 38q-5 13 -9.5 30.5t-9.5 34.5q-5 19 -11 39h-368zM336 498v228q0 11 2.5 23t10 21.5t20.5 15.5t34 6h188q31 0 51.5 -14.5t20.5 -52.5v-227h-327z" />
    

    
    <glyph glyph-name="yanjing" unicode="&#58976;" d="M1005.481984 300.078848c0-95.007744-203.483136-297.683968-493.45536-297.683968-282.592256 0-493.45536 199.341056-493.45536 297.683968 0 98.328576 211.77344 297.365504 493.45536 297.365504C804.278272 597.443328 1005.550592 398.407424 1005.481984 300.078848zM512.4608 543.144704c-131.330048 0-237.79328-108.901376-237.79328-243.227648 0-134.327296 106.462208-243.227648 237.79328-243.227648 131.371008 0 237.837312 108.901376 237.837312 243.227648C750.297088 434.243328 643.831808 543.144704 512.4608 543.144704zM512.026624 455.200512c-83.634176 0-151.435264-69.337088-151.435264-154.876928 0-85.530624 67.801088-154.88 151.435264-154.88s151.407616 69.349376 151.407616 154.88C663.43424 385.863424 595.6608 455.200512 512.026624 455.200512z"  horiz-adv-x="1024" />

    
    <glyph glyph-name="mingpian" unicode="&#58941;" d="M1024 612.768c0 40.768-19.776 64-64 64L64 676.768c-37.248 0-64-26.752-64-64l0-576c0-37.248 26.752-64 64-64l896 0c33.728 0 64 23.232 64 64L1024 612.768zM128 548.768l384 0 0-128L128 420.768 128 548.768zM896 100.768 128 100.768l0 64 768 0L896 100.768zM896 228.768 128 228.768l0 64 768 0L896 228.768z"  horiz-adv-x="1024" />

    
    <glyph glyph-name="zhifubao" unicode="&#58881;" d="M604.223602 99.652174c-197.167702-254.409938-438.857143-178.086957-477.018634-159.006211-95.403727 25.440994-127.204969 197.167702-6.360248 254.409938 197.167702 63.602484 375.254658-6.360248 502.459627-69.962733C610.583851 106.012422 604.223602 99.652174 604.223602 99.652174zM814.111801 169.614907c89.043478 159.006211 120.84472 311.652174 120.84472 311.652174l-19.080745 0-133.565217 0L636.024845 481.267081 636.024845 595.751553l349.813665 0L985.838509 640.273292 636.024845 640.273292 636.024845 812 477.018634 812l0-171.726708-318.012422 0 0-50.881988 318.012422 0 0-114.484472L209.888199 474.906832l0-50.881988 546.981366 0c0-6.360248 0-6.360248-6.360248-19.080745 0-57.242236-38.161491-133.565217-69.962733-197.167702-407.055901 159.006211-521.540373 63.602484-553.341615 50.881988-267.130435-190.807453-19.080745-432.496894 25.440994-426.136646 286.21118-63.602484 470.658385 57.242236 597.863354 209.888199 6.360248-6.360248 19.080745-6.360248 25.440994-6.360248 89.043478-50.881988 508.819876-248.049689 508.819876-248.049689l0 241.689441C1208.447205 36.049689 979.478261 112.372671 814.111801 169.614907z"  horiz-adv-x="1285" />

    
    <glyph glyph-name="daifahuo" unicode="&#58911;" d="M502.151189 687.29172c-215.855186 0-390.837476-174.981267-390.837476-390.839523 0-215.85007 174.981267-390.837476 390.837476-390.837476 215.845976 0 390.839523 174.987407 390.839523 390.837476C892.989689 512.310454 717.997166 687.29172 502.151189 687.29172zM515.636319 203.387615c-3.412726 0-6.749728 0.294712-9.981329 0.88516l-76.848249-76.861552c-6.5246-6.517437-15.087627-9.795087-23.626094-9.795087-8.556886 0-17.107633 3.27765-23.62507 9.795087-13.054317 13.047154-13.054317 34.217313 0 47.252187l76.848249 76.835969c-0.577145 3.263323-0.871857 6.599302-0.871857 9.968026 0 19.667945 9.749038 37.051871 24.689309 47.559179L482.221278 519.197304c0 18.469654 14.953573 33.422204 33.415041 33.422204 18.448164 0 33.419134-14.95255 33.419134-33.422204l0-210.171744c14.936177-10.507308 24.697495-27.891234 24.697495-47.559179C573.752948 229.425641 547.747667 203.387615 515.636319 203.387615zM141.860427 492.249559c34.434254 67.785849 87.343277 124.58139 152.209634 163.633824l-19.199271 19.207457c-25.653263 25.651216-67.246567 25.651216-92.898807 0l-65.025992-65.019853c-25.65224-25.659403-25.65224-67.25373 0-92.898807L141.860427 492.249559zM907.058103 610.070988l-65.025992 65.019853c-25.65224 25.659403-67.24145 25.659403-92.898807 0l-26.846438-26.840298c62.993706-41.039695 113.818255-99.120508 145.917324-167.763888 3.886517 2.494821 7.587815 5.420453 10.988262 8.819876l27.871791 27.865651C932.711366 542.823398 932.711366 584.410562 907.058103 610.070988z"  horiz-adv-x="1024" />

    
    <glyph glyph-name="mima" unicode="&#58887;" d="M512-224c-211.744 0-384 172.256-384 384v192h768v-192c0-211.744-172.288-384-384-384M192 288v-128c0-176.448 143.552-320 320-320s320 143.552 320 320v128h-640zM512-64c-52.672 0-95.552 42.624-96 95.2v64.8c0 52.928 43.072 96 96 96s96-43.072 96-96v-64.8c-0.448-52.576-43.36-95.2-96-95.2M512 128c-17.632 0-32-14.368-32-32v-64c0-17.632 14.368-32 32-32s32 14.368 32 32v64c0 17.632-14.368 32-32 32M768 416h-64v138.048c0 100.32-86.112 181.952-192 181.952-105.856 0-192-81.632-192-181.952v-138.048h-64v138.048c0 135.648 114.816 245.952 256 245.952s256-110.304 256-245.952v-138.048z"  horiz-adv-x="1024" />

    
    <glyph glyph-name="iconfontgantanhao" unicode="&#58885;" d="M511.747622 800.123382c-279.485517 0-506.063671-226.577164-506.063671-506.059712 0-279.489476 226.578154-506.063671 506.063671-506.063671 279.486506 0 506.060701 226.574195 506.060701 506.063671 0 279.482548-226.575185 506.059712-506.060701 506.059712zM511.747622-152.463505c-246.60609 0-446.526186 199.918116-446.526186 446.526186 0 246.604111 199.921085 446.523217 446.526186 446.523217 246.605101 0 446.526186-199.920096 446.526186-446.523217-0.00099-246.609059-199.922075-446.526186-446.526186-446.526186zM511.747622 547.092042c-23.285099 0-42.179808-18.866007-42.179808-42.153085l0-274.134111c0-23.286088 18.894709-42.152096 42.179808-42.152096 23.286088 0 42.153085 18.866007 42.153085 42.152096l0 274.134111c0 23.287078-18.866997 42.153085-42.153085 42.153085zM511.747622 125.393925c-23.285099 0-42.179808-18.898668-42.179808-42.180798 0-23.286088 18.894709-42.181787 42.179808-42.181787 23.286088 0 42.153085 18.895699 42.153085 42.181787 0 23.28213-18.866997 42.180798-42.153085 42.180798z"  horiz-adv-x="1024" />

    
    <glyph glyph-name="biaoqian" unicode="&#58917;" d="M1008.64 315.1872c-4.3008 27.2384-17.6128 49.3568-36.864 68.608-40.96 40.96-82.1248 81.7152-123.0848 122.6752-70.8608 70.4512-141.7216 140.9024-212.5824 211.5584-42.5984 42.3936-85.1968 84.7872-127.7952 127.1808-15.9744 15.7696-35.0208 26.624-56.9344 32.1536-14.1312 3.4816-28.672 7.168-43.4176 3.8912C326.8608 863.0272 245.9648 844.8 165.0688 826.368 141.5168 821.0432 120.832 809.7792 104.0384 792.1664c-16.7936-17.6128-26.624-38.912-32.1536-62.464-16.1792-70.0416-32.5632-140.0832-48.7424-210.1248-3.4816-15.1552-7.168-30.3104-5.3248-46.08 3.6864-32.5632 16.9984-60.416 40.7552-83.5584C99.7376 349.3888 140.6976 308.224 181.6576 267.264c66.3552-65.9456 132.7104-132.096 199.0656-198.0416 34.6112-34.4064 69.2224-69.0176 104.0384-103.424 15.9744-15.7696 31.3344-32.3584 48.9472-46.2848 45.4656-36.0448 114.2784-33.5872 157.2864 5.12 18.8416 16.9984 36.4544 35.2256 54.272 53.0432 75.9808 75.5712 151.9616 151.1424 227.9424 226.7136 24.7808 24.7808 36.864 54.8864 37.6832 89.9072C1010.2784 301.4656 1009.8688 308.4288 1008.64 315.1872zM933.4784 244.5312c-56.7296-56.5248-113.664-113.0496-170.5984-169.7792-34.2016-33.9968-68.4032-68.4032-102.8096-102.4-20.6848-20.2752-45.2608-26.2144-72.9088-18.2272-12.288 3.4816-22.3232 10.8544-31.3344 19.8656-43.8272 43.8272-87.6544 87.4496-131.4816 131.2768-66.7648 66.3552-133.5296 132.7104-200.2944 199.2704-42.5984 42.3936-85.4016 84.5824-128 126.976-16.9984 16.9984-25.3952 37.2736-21.0944 61.44 2.048 12.0832 4.9152 24.1664 7.5776 36.0448 14.7456 63.2832 29.4912 126.7712 44.4416 190.0544C133.9392 748.544 152.3712 766.3616 181.6576 773.12c73.5232 16.9984 147.2512 33.792 220.9792 50.5856 5.7344 1.2288 11.8784 1.6384 17.6128 2.4576 21.0944 0 37.4784-9.8304 51.8144-24.1664 42.1888-42.1888 84.5824-84.3776 126.976-126.5664 66.1504-65.7408 132.3008-131.4816 198.2464-197.2224 45.056-44.8512 90.112-89.4976 135.168-134.3488 10.4448-10.4448 18.0224-22.528 20.48-37.4784C957.2352 282.4192 950.8864 261.7344 933.4784 244.5312zM316.2112 685.8752c-56.7296 0-101.5808-44.8512-101.5808-101.1712 0.2048-54.6816 45.8752-100.352 100.5568-100.1472 55.7056 0 101.9904 45.2608 101.9904 100.1472C417.1776 640.4096 371.9168 685.8752 316.2112 685.8752zM315.1872 541.0816c-24.9856 0.2048-44.4416 19.6608-44.4416 44.4416 0 24.576 20.0704 44.4416 45.056 44.4416 25.1904 0 45.056-20.0704 45.056-45.056C360.8576 560.3328 340.5824 540.8768 315.1872 541.0816z"  horiz-adv-x="1024" />

    
    <glyph glyph-name="20" unicode="&#58882;" d="M738.767 411.372l-402.523 402.522c-17.404 17.404-45.885 17.404-63.289 0v0c-17.404-17.404-17.404-45.885 0-63.289l370.877-370.877-370.877-370.877c-17.404-17.404-17.404-45.885 0-63.289v0c17.404-17.404 45.885-17.404 63.289 0l402.523 402.522c17.404 17.404 17.404 45.885 0 63.289z"  horiz-adv-x="1024" />

    
    <glyph glyph-name="lajixiang" unicode="&#58950;" d="M944 704l-188.8 0 0 44.8c0 54.4-44.8 99.2-99.2 99.2l-294.4 0c-54.4 0-99.2-44.8-99.2-99.2l0-44.8-179.2 0c-12.8 0-25.6-9.6-25.6-25.6 0-12.8 9.6-25.6 25.6-25.6l60.8 0 0 0 0-633.6c0-54.4 44.8-99.2 99.2-99.2l550.4 0c54.4 0 99.2 44.8 99.2 99.2l0 630.4 0 3.2 51.2 0c12.8 0 25.6 9.6 25.6 25.6C966.4 691.2 960 704 944 704zM316.8 748.8c0 25.6 22.4 48 48 48l294.4 0c25.6 0 48-22.4 48-48l0-44.8-390.4 0L316.8 748.8zM841.6 28.8c0-28.8-16-57.6-41.6-57.6l-550.4 0c-25.6 0-54.4 19.2-54.4 44.8l3.2 636.8 643.2 0 0 0L841.6 28.8zM368 515.2c-16 0-25.6-9.6-25.6-25.6l0-342.4c0-16 12.8-25.6 25.6-25.6 12.8 0 25.6 9.6 25.6 25.6l0 342.4C390.4 502.4 384 515.2 368 515.2zM528 515.2c-16 0-25.6-9.6-25.6-25.6l0-342.4c0-16 12.8-25.6 25.6-25.6 12.8 0 25.6 9.6 25.6 25.6l0 342.4C550.4 502.4 544 515.2 528 515.2zM688 515.2c-16 0-25.6-9.6-25.6-25.6l0-342.4c0-16 12.8-25.6 25.6-25.6 12.8 0 25.6 9.6 25.6 25.6l0 342.4C710.4 502.4 704 515.2 688 515.2z"  horiz-adv-x="1024" />

    
    <glyph glyph-name="06" unicode="&#58902;" d="M979.945 579.607c-19.153 24.064-47.802 37.841-78.569 37.841l-401.943-0c-19.293 0-34.909-15.616-34.909-34.909s15.616-34.909 34.909-34.909h401.943c9.379 0 18.106-4.212 23.948-11.543 5.841-7.331 8.006-16.803 5.679-27.020l-51.805-264.425c-3.212-14.033-15.5-23.785-29.882-23.785h-422.656c-14.383 0-26.973 10.193-29.789 23.296l-75.869 412.369c-9.821 46.057-51.153 79.523-98.257 79.523l-96.884-0c-19.293 0-34.909-15.616-34.909-34.909s15.616-34.909 34.909-34.909h96.884c14.359 0 26.973-10.193 29.789-23.296l75.869-412.346c9.798-46.057 51.13-79.523 98.257-79.523h422.703c47.151 0 87.436 32.093 98.164 79.104l51.805 264.425c6.842 29.952-0.209 60.951-19.386 85.015zM792.553 12.777c0-38.148 30.925-69.073 69.073-69.073s69.073 30.925 69.073 69.073c0 38.148-30.925 69.073-69.073 69.073-38.148 0-69.073-30.925-69.073-69.073zM348.928 12.777c0-38.148 30.925-69.073 69.073-69.073s69.073 30.925 69.073 69.073c0 38.148-30.925 69.073-69.073 69.073-38.148 0-69.073-30.925-69.073-69.073z"  horiz-adv-x="1024" />

    
    <glyph glyph-name="gengduo" unicode="&#58884;" d="M863.976448 273.410048C803.309568 273.410048 754.128896 322.694144 754.128896 383.489024 754.128896 444.28288 803.309568 493.566976 863.976448 493.566976 924.644352 493.566976 973.824 444.28288 973.824 383.489024 973.824 322.694144 924.644352 273.410048 863.976448 273.410048ZM511.488 273.410048C450.82112 273.410048 401.640448 322.694144 401.640448 383.489024 401.640448 444.28288 450.82112 493.566976 511.488 493.566976 572.15488 493.566976 621.335552 444.28288 621.335552 383.489024 621.335552 322.694144 572.15488 273.410048 511.488 273.410048ZM158.999552 273.410048C98.332672 273.410048 49.152 322.694144 49.152 383.489024 49.152 444.28288 98.332672 493.566976 158.999552 493.566976 219.666432 493.566976 268.847104 444.28288 268.847104 383.489024 268.847104 322.694144 219.666432 273.410048 158.999552 273.410048Z"  horiz-adv-x="1024" />

    
    <glyph glyph-name="bangzhu" unicode="&#58897;" d="M507.136-100.004571c-265.563429 0-480.859429 215.405714-480.859429 481.133714 0 265.728 215.296 481.133714 480.859429 481.133714 265.563429 0 480.859429-215.424 480.859429-481.133714C987.995429 115.419429 772.717714-100.004571 507.136-100.004571zM452.571429 70.454857l98.523429 0 0 95.542857L452.571429 165.997714 452.571429 70.454857zM539.154286 691.456c-129.408 3.968-207.030857-54.765714-232.868571-176.146286l86.582857-20.900571c17.92 81.590857 61.677714 121.380571 131.364571 119.424 59.702857-4.004571 92.562286-33.865143 98.523429-89.563429 3.968-37.833143-22.912-76.653714-80.603429-116.443429-53.741714-37.833143-79.634286-84.626286-77.622857-140.324571 0-13.952 0-24.905143 0-32.841143l77.622857 0c0 3.968 0 12.928 0 26.861714-2.011429 41.801143 20.900571 77.622857 68.662857 107.483429 75.611429 47.762286 111.451429 102.491429 107.483429 164.205714C708.297143 632.722286 648.594286 685.476571 539.154286 691.456z"  horiz-adv-x="1024" />

    
    <glyph glyph-name="sousuo" unicode="&#59021;" d="M704.02085 133.414825c-67.714218-57.313334-155.304112-91.868337-250.960729-91.868337-214.664058 0-388.680347 174.016289-388.680347 388.676254 0 214.664058 174.016289 388.679323 388.680347 388.679323 214.659965 0 388.676254-174.014242 388.676254-388.679323 0-82.813101-25.898857-159.578462-70.040193-222.636636l173.321464-173.321464c19.527752-19.527752 19.440771-51.274804-0.105401-70.820975-19.584034-19.585057-51.322899-19.60143-70.820975-0.104377L704.02085 133.414825 704.02085 133.414825zM453.061145 116.771773c173.11271 0 313.449945 140.337235 313.449945 313.450968 0 173.116803-140.337235 313.453015-313.449945 313.453015-173.117826 0-313.454038-140.336212-313.454038-313.453015C139.607106 257.109008 279.943318 116.771773 453.061145 116.771773L453.061145 116.771773zM453.061145 116.771773"  horiz-adv-x="1024" />

    
    <glyph glyph-name="dingwei" unicode="&#58997;" d="M541.190891-113.293248C544.52832-109.885275 548.383707-105.898704 552.713978-101.36109 565.025302-88.460186 578.71838-73.688892 593.450024-57.266626 635.514509-10.374618 677.575463 40.451848 716.899743 93.494715 772.694379 168.753699 818.336558 242.266769 850.310552 312.084694 882.791737 383.009893 900.380982 448.452089 900.380982 507.619018 900.380982 722.115903 726.496814 896 512 896 297.503186 896 123.619018 722.115903 123.619018 507.619018 123.619018 442.085006 148.112442 366.10344 192.638909 280.975731 222.801105 223.310035 261.563999 162.672853 306.917011 100.364169 346.163792 46.444796 388.144069-5.753449 430.125229-54.301866 444.824743-71.300737 458.485691-86.641645 470.765062-100.079009 475.081033-104.802039 478.922121-108.956003 482.24525-112.510078 484.268362-114.673642 485.687365-116.175194 486.459184-116.983838 500.133902-131.31116 522.916683-131.589594 536.93759-117.600746 537.722472-116.817576 539.154539-115.372534 541.190891-113.293248ZM537.540816-68.228432C536.933529-67.592087 535.680295-66.265819 533.824363-64.28098 530.682538-60.921044 527.024342-56.964783 522.892674-52.443587 511.036286-39.468873 497.80291-24.608075 483.539265-8.113199 442.768795 39.034804 401.997442 89.729997 364.009369 141.920316 320.553597 201.622364 283.599147 259.430578 255.210969 313.704366 215.493894 389.637509 194.233742 455.58896 194.233742 507.619018 194.233742 683.116468 336.502462 825.385276 512 825.385276 687.497538 825.385276 829.766258 683.116468 829.766258 507.619018 829.766258 459.960364 814.709257 403.939762 786.108175 341.487041 756.432867 276.688569 713.270146 207.168868 660.173876 135.549508 622.263303 84.413538 581.572627 35.2429 540.885482-10.113538 526.654144-25.978212 513.452721-40.219066 501.628286-52.609655 497.511094-56.924056 493.867022-60.692128 490.739495-63.885697 488.896804-65.767332 487.65681-67.018643 487.06241-67.611524L537.540816-68.228432ZM670.883129 507.619018C670.883129 595.367752 599.748681 666.502147 512 666.502147 424.251319 666.502147 353.116871 595.367752 353.116871 507.619018 353.116871 419.870285 424.251319 348.73589 512 348.73589 599.748681 348.73589 670.883129 419.870285 670.883129 507.619018ZM423.731595 507.619018C423.731595 556.368317 463.250772 595.887423 512 595.887423 560.749228 595.887423 600.268405 556.368317 600.268405 507.619018 600.268405 458.86972 560.749228 419.350613 512 419.350613 463.250772 419.350613 423.731595 458.86972 423.731595 507.619018Z"  horiz-adv-x="1024" />

    
    <glyph glyph-name="weixinzhifu" unicode="&#58880;" d="M375.124 265.412c-4.515-2.258-9.708-3.612-15.127-3.612-12.643 0-23.593 6.886-29.351 17.159l-2.145 4.854-91.89 201.729c-1.016 2.145-1.58 4.628-1.58 7.112 0 9.257 7.563 16.82 16.82 16.82 3.725 0 7.225-1.242 10.047-3.387l108.485-77.215c7.902-5.193 17.385-8.241 27.544-8.241 6.096 0 11.853 1.129 17.272 3.048l510.137 227.016c-91.439 107.807-242.030 178.136-412.49 178.136-278.831 0-504.945-188.409-504.945-420.731 0-126.772 68.071-240.901 174.411-318.003 8.579-6.096 14.111-16.143 14.111-27.432 0-3.725-0.79-7.112-1.806-10.724-8.467-31.721-22.126-82.521-22.803-84.891-1.016-3.951-2.709-8.128-2.709-12.305 0-9.257 7.563-16.82 16.82-16.82 3.612 0 6.66 1.355 9.708 3.161l110.517 63.781c8.354 4.854 17.159 7.789 26.867 7.789 5.193 0 10.16-0.79 14.788-2.258 51.589-14.788 107.243-23.029 164.815-23.029 278.831 0 504.945 188.409 504.945 420.731 0 70.442-20.884 136.706-57.46 194.956l-584.982-337.646z"  horiz-adv-x="1024" />

    
    <glyph glyph-name="close" unicode="&#58975;" d="M826.289 771.589l-314.289-314.278-314.289 314.278c-16.933 16.933-44.389 16.933-61.321 0-16.933-16.933-16.933-44.387 0-61.318l314.289-314.277-314.289-314.279c-16.933-16.933-16.933-44.387 0-61.318 16.933-16.933 44.389-16.933 61.321 0l314.289 314.277 314.289-314.277c16.933-16.933 44.388-16.933 61.323 0s16.933 44.387 0 61.318l-314.289 314.278 314.289 314.277c16.933 16.933 16.933 44.387 0 61.318-16.934 16.931-44.389 16.931-61.323 0.001z"  horiz-adv-x="1024" />

    
    <glyph glyph-name="xinxiaoxitongzhi" unicode="&#58966;" d="M1180.601 536.840997c-44.332772 126.191791-142.274467 218.049777-259.220224 259.400929l-0.060235-0.180704a30.057138 30.057138 0 0 1-37.857537-18.34148 30.057138 30.057138 0 0 1 17.859602-38.249063l-0.060235-0.150587c100.381202-35.5385 184.559258-114.355663 222.47703-222.446913 66.559393-189.498508-33.430283-397.820373-222.928791-464.409883a30.117372 30.117372 0 0 1 19.967818-56.831482c221.151866 77.702821 337.495276 319.997082 259.822572 541.209183M1050.132543 491.032474a285.663278 285.663278 0 0 1-174.80123 174.801229l-0.120469-0.301173a29.966786 29.966786 0 0 1-24.666128-54.663031c1.596221-0.752934 3.282794-0.752934 4.939249-1.234813l-0.210822-0.602347c94.478197-33.430283 165.735901-128.60118 149.050876-255.244732-10.782019-81.798784-73.81768-140.858951-150.49651-171.307614a30.087255 30.087255 0 0 1 21.112278-56.379722c148.900289 52.313876 227.506632 216.001795 175.192756 364.932203M668.545434 895.990664c-17.468076 0-35.177091-4.367019-51.079064-12.709532l-251.118651-131.793621c-51.500707-25.208241-81.678314-38.791176-98.965686-54.572679H120.46949c-66.258219 0-120.46949-54.21127-120.46949-120.46949v-361.40847c0-66.258219 54.21127-120.46949 120.46949-120.46949h150.586862l0.903521 0.090353c18.251128-14.546691 47.79627-28.099509 94.387846-54.632914l251.118651-131.793622a110.590992 110.590992 0 0 1 51.109181-12.709531c21.503804 0 42.706434 6.625822 59.963689 20.479813a120.379138 120.379138 0 0 1 45.236293 93.905967V781.604883A120.46949 120.46949 0 0 1 728.53924 875.571085 95.110662 95.110662 0 0 1 668.545434 895.990664z m44.995354-886.053098c0-18.251128-8.282277-35.387913-22.738616-46.983101a35.5385 35.5385 0 0 0-22.226621-7.198052c-7.890752 0-15.871855 2.017864-23.130142 5.812653l-250.185013 131.311744c-14.757513 8.432864-27.85857 15.510447-39.453758 21.804977-1.355282 0.6927-30.177607 13.64317-30.177607 46.681928V633.969523c0 34.8458 25.599767 43.09796 30.117372 45.326646l17.859602 8.734038 19.214884 9.336385 0.783052 0.361409 0.752934 0.391526 251.088534 131.793621c7.258287 3.794789 15.23939 5.812653 23.100025 5.812653 6.083709 0 14.877982-1.26493 22.286855-7.198052 14.456339-11.595188 22.708499-28.701856 22.708499-46.952983V9.937566z m-448.146502 205.099306c0-60.234745-60.234745-60.234745-60.234745-60.234745H120.46949c-33.219462 0-60.234745 27.015283-60.234745 60.234745v361.40847c0 33.219462 27.015283 60.234745 60.234745 60.234745h84.690051c60.234745 0 60.234745-60.234745 60.234745-60.234745v-361.40847z"  horiz-adv-x="1205" />

    
    <glyph glyph-name="tishi" unicode="&#58949;" d="M511.994153 896c-282.316609 0-511.994153-229.671696-511.994153-511.994153 0-282.334152 229.671696-512.005847 511.994153-512.005847 282.334152 0 512.005847 229.671696 512.005847 512.005847 0 282.322457-229.660001 511.994153-512.005847 511.994153z m0.011694-236.478169c25.021391 0 45.236149-20.214758 45.23615-45.130895l-0.304069-275.369796c0-25.021391-20.32586-45.224454-45.230302-45.224454-24.910289 0-43.727498 20.203063-43.733346 45.224454l-1.204582 275.369796c0 24.921984 20.220606 45.130895 45.236149 45.130895z m48.434725-502.515378c0-26.816569-21.711714-48.528284-48.528284-48.528284s-48.534131 21.711714-48.534132 48.528284l0.198815 1.508651a48.516589 48.516589 0 0 0 48.534131 48.528284 48.534131 48.534131 0 0 0 48.539979-48.528284l-0.210509-1.508651z"  horiz-adv-x="1024" />

    
    <glyph glyph-name="yue" unicode="&#58889;" d="M512 849.92a465.92 465.92 0 1 0-465.92-465.92 466.432 466.432 0 0 0 465.92 465.92m0 46.08a512 512 0 1 1 512-512A512 512 0 0 1 512 896zM680.704 313.9584h-141.4656V390.144h141.4656a27.2128 27.2128 0 0 1 0 54.4256h-141.4656v21.76 1.5872l134.0416 132.0448a26.9824 26.9824 0 0 1 0 38.5024 28.0064 28.0064 0 0 1-39.0656 0L510.464 516.7103999999999 386.9184 638.4128000000001a28.0064 28.0064 0 0 1-39.0656 0 26.9824 26.9824 0 0 1 0-38.5024l136.96-134.8608v-20.48H343.3472a27.2128 27.2128 0 1 1 0-54.4256h141.4656v-76.1856H343.3472a27.2128 27.2128 0 1 1 0-54.4256h141.4656v-110.6432a27.2128 27.2128 0 0 1 54.4256 0v110.6432h141.4656a27.2128 27.2128 0 0 1 0 54.4256z"  horiz-adv-x="1024" />

    
    <glyph glyph-name="liwu" unicode="&#58898;" d="M924.65 73.49V379.819c21.098 12.18 35.258 34.956 35.258 61.08V518.98c0 38.886-31.565 70.503-70.51 70.503h-92.732c2.032 1.216 4.05 2.44 6.052 3.678 42.711 26.396 71.222 52.74 79.845 81.858 8.915 30.107-5.239 57.456-38.946 76.967-38.894 22.514-86.875 25.088-141.296 12.032-38.81-9.31-79.631-26.254-121.082-48.621-22.441-12.11-43.67-25.062-63.065-38.024a704.27 704.27 0 0 1-13.084-8.952c-6.86 6.13-13.868 12.185-21.048 18.104-60.103 49.557-120.3 82.09-178.51 89.178-47.314 5.762-91.12-5.932-128.965-37.111l-2.71-2.625a117.28 117.28 0 0 1-3.529-4.212c-38.202-47.887-20.66-97.891 27.162-142.272h-60.288c-39.052 0-70.51-31.547-70.51-70.503v-78.08c0-26.059 14.186-48.836 35.259-61.038V73.49c0-51.97 42.048-93.82 94.055-93.82h634.591c52.094 0 94.052 41.938 94.052 93.82zM603.6 674.134c38.15 20.587 75.377 36.038 109.708 44.274 43.728 10.49 79.85 8.552 106.716-7 16.35-9.464 19.62-15.78 17.452-23.097-4.27-14.422-26.195-34.68-59.514-55.272-14.854-9.18-30.887-17.828-46.931-25.64-9.612-4.68-17.025-8.011-21.11-9.733a23.38 23.38 0 0 1-10.128-8.185H578.457a23.325 23.325 0 0 1-4.478 8.63c-1.253 1.521-3.535 4.21-6.778 7.9-5.322 6.056-11.46 12.78-18.347 20.007a783.54 783.54 0 0 1-9.052 9.324c1.47 1 2.979 2.016 4.531 3.054 18.232 12.185 38.218 24.38 59.268 35.738z m-330.538-82.47c-2.226 1.239-6.499 3.819-12.117 7.562-9.45 6.296-18.9 13.42-27.631 21.153-35 30.994-45.434 58.057-26.205 82.16 0.3 0.378 0.637 0.76 0.954 1.138 27.187 21.762 57.553 29.629 91.773 25.462 47.482-5.783 100.45-34.408 154.26-78.775 21.828-17.998 42.268-37.337 60.69-56.67a700.147 700.147 0 0 0 3.98-4.212H276.31a23.665 23.665 0 0 1-3.246 2.183z m-159.36-72.684c0 13.1 10.464 23.594 23.499 23.594h752.196c12.942 0 23.5-10.575 23.5-23.594v-78.08c0-6.304-2.428-12-6.394-16.217a23.588 23.588 0 0 1-5.36 0.62H125.456c-1.825 0-3.6-0.215-5.307-0.608-3.988 4.23-6.445 9.931-6.445 16.205v78.08z m82.301-492.401c-26.07 0-47.043 20.874-47.043 46.911V370.397h728.677V73.49c0-25.993-20.93-46.911-47.044-46.911h-634.59z"  horiz-adv-x="1024" />

    
    <glyph glyph-name="wuliu" unicode="&#58974;" d="M343.296 317.696H209.152a33.536 33.536 0 0 0 0 67.072H309.76V485.44c0 18.624 14.976 33.536 33.536 33.536 18.688 0 33.6-14.976 33.6-33.536v-134.272a33.344 33.344 0 0 0-33.6-33.472zM710.784 222.144a137.6 137.6 0 0 1-133.568-106.112H447.232a137.152 137.152 0 0 1-133.504 106.112 137.728 137.728 0 0 1-137.536-137.472c0-76.032 61.76-137.728 137.536-137.728 63.36 0 116.16 43.392 132.032 101.824h132.672a137.344 137.344 0 0 1 132.288-101.824c75.84 0 137.536 61.76 137.536 137.536s-61.632 137.664-137.472 137.664z m-397.056-207.872a70.528 70.528 0 1 0 70.4 70.656 70.4 70.4 0 0 0-70.4-70.656z m397.056 0.192a70.4 70.4 0 1 0 0 140.672 70.4 70.4 0 0 0 0-140.672zM880.64 821.12H393.472a83.84 83.84 0 0 1-83.776-83.712v-97.152L105.6 537.792c-1.344-0.704-2.816-1.664-4.096-2.496-37.952-26.752-58.816-68.224-58.816-116.992v-337.856a33.472 33.472 0 1 1 67.072 0V418.304c0 26.176 9.536 46.72 28.352 60.8L358.4 589.568c1.408 0.704 2.56 2.112 3.84 3.072 1.984 1.408 3.968 2.688 5.568 4.352 1.536 1.664 2.56 3.456 3.712 5.248 1.088 1.792 2.304 3.456 3.072 5.568 0.96 2.368 1.088 4.672 1.472 7.04 0.128 1.6 0.896 3.072 0.896 4.672V737.408a16.64 16.64 0 0 0 16.576 16.576h487.104a33.92 33.92 0 0 0 33.6-34.112v-637.312c0-18.624 14.912-33.536 33.536-33.536s33.472 14.912 33.472 33.536V719.936A101.056 101.056 0 0 1 880.64 821.12z"  horiz-adv-x="1024" />

    
    <glyph glyph-name="gouxuan" unicode="&#58909;" d="M413.634 40.747c-14.137 0-27.76 5.286-38.03 14.862L82.878 328.639c-21.929 20.45-22.684 54.341-1.691 75.697 20.993 21.355 55.79 22.08 77.72 1.631L408.83 172.868l453.361 536.517c19.301 22.835 53.947 26.098 77.387 7.31 23.441-18.788 26.823-52.528 7.521-75.364L456.103 60.26c-9.726-11.509-23.924-18.547-39.208-19.423a60.16 60.16 0 0 0-3.261-0.09m0 0z"  horiz-adv-x="1024" />

    
    <glyph glyph-name="yiwancheng" unicode="&#59061;" d="M817.204642 819.506206c-2.047051 0-4.002879-0.121631-5.957491-0.21407H212.643381c-1.954612 0.09244-3.91044 0.214071-5.957491 0.21407-71.640713 0-129.838758-58.228453-129.838758-129.839974l0.214071-13.746746H76.754692v-585.100286h0.305294l-0.091223-13.076559v-1.191985c0-70.754022 57.557049-128.433919 128.403511-128.433919 2.168682 0 4.337365 0.124064 6.507264 0.214071H808.130962l0.642213-0.091223c2.810895-0.336918 5.834643-0.428141 8.981239-0.428142 70.846462 0 128.402295 57.558265 128.402295 128.189441v0.763843 0.977914l-0.091223 13.076559h0.855067V681.662906c0.212854 2.596824 0.336918 5.193648 0.336918 7.790472 0 71.731936-58.320892 130.052829-130.052829 130.052828zM483.05849 155.065959a27.67229 27.67229 0 0 0-19.533954-8.045897c-7.0096 0-14.148129 2.660072-19.535169 8.045897L292.649881 305.614843c-27.772027 31.015928-13.238328 60.478628-2.432622 71.154189 10.805706 10.805706 43.828548 14.718578 65.802421-7.256511l107.502424-107.830829 218.732841 218.76325C703.154816 501.237777 731.129967 513.400886 757.888807 489.074668c17.520959-15.927591 17.282562-38.497457 1.042379-61.660882-11.175465-15.938538-275.872696-272.347827-275.872696-272.347827z m394.910613 516.514946H145.798582v21.445994l0.519365 1.34524c0.396517 1.099545 0.611804 2.200306 0.611804 3.146596 0 31.375956 33.298944 56.946461 74.359168 56.946461 0.214071 0 0.640996 0.091223 1.03873 0.091223l0.611804 0.091224h577.157776l0.824659-0.091224c0.519365-0.091223 1.129953-0.091223 1.649317-0.091223 41.060224 0 74.482015-25.571721 74.482016-57.007276 0-0.885474 0.183663-1.741757 0.519364-2.688047l0.397734-1.191985-0.001216-21.996983z"  horiz-adv-x="1024" />

    
    <glyph glyph-name="zhuanfa" unicode="&#59015;" d="M860.5184 715.6736c-265.728-27.392-472.9344-251.9552-472.9344-524.9536a25.6 25.6 0 0 0-51.2 0c0 292.4032 216.7808 534.2208 498.3808 573.44l-154.7264 47.3088a26.0096 26.0096 0 0 0-17.3056 32.0512c4.1472 13.5168 18.944 20.992 32.1536 16.896l252.0064-77.0048a25.5488 25.5488 0 0 0 11.3664-42.0864 25.9072 25.9072 0 0 0-2.304-2.6112l-33.6384-33.6384-152.7296-152.7808a26.0096 26.0096 0 0 0-36.4544-0.2048 25.9584 25.9584 0 0 0 0.1536 36.352l127.232 127.232z m57.1392-362.0352a25.6 25.6 0 0 0 51.2 0v-343.3472c0-61.952-50.6368-112.6912-111.8208-112.6912H163.072A112.384 112.384 0 0 0 51.2 9.472V703.4368c0 61.8496 50.0736 111.8208 112.128 111.8208h249.344a25.6 25.6 0 1 0 0-51.2H163.328c-33.792 0-60.928-27.136-60.928-60.6208v-693.9648c0-32.9728 27.4944-60.672 60.672-60.672h693.9648c32.8704 0 60.6208 27.8016 60.6208 61.4912v343.3472z"  horiz-adv-x="1024" />

    
    <glyph glyph-name="didian" unicode="&#58916;" d="M829 690.6C665.2 880 360.5 880 196.7 690.6l-1-1.2c-122.8-142-124.6-346.3-4.6-490.5 69.6-83.6 152.8-162.6 248.9-237.4 42.4-33 103.8-33.2 146.2-0.3 99 76.9 184.9 160.7 257.3 251.5C956.6 354.5 947.9 553.2 829 690.6zM512.9 310.5c-83 0-150.3 64-150.3 143s67.3 143 150.3 143 150.2-64 150.2-143c0-78.9-67.2-143-150.2-143z"  horiz-adv-x="1024" />

    
    <glyph glyph-name="scliuyan" unicode="&#58899;" d="M82.45-71.857c-35.745 0.1-64.695 29.050-64.794 64.785l-0 593.929c0.201 139.647 113.352 252.798 252.98 252.999l482.711 0c139.647-0.201 252.798-113.352 252.999-252.98l0-288.504c-0.201-139.647-113.352-252.798-252.98-252.999l-482.888-0c-0.228 0.002-0.499 0.003-0.769 0.003-28.94 0-55.137-11.742-74.088-30.722l-67.268-67.444c-11.707-11.778-27.919-19.068-45.833-19.068-0.025 0-0.050 0-0.074 0zM270.654 769.236c-100.644-0.201-182.178-81.734-182.378-182.359l-0-579.815 57.556 57.556c31.59 31.732 75.304 51.371 123.606 51.377l483.908-0c100.644 0.201 182.178 81.734 182.378 182.359l0 288.504c-0.201 100.644-81.734 182.178-182.359 182.378zM759.172 522.063h-494.345c-19.501 0-35.31 15.809-35.31 35.31 0 19.501 15.809 35.31 35.31 35.31h494.345c19.501-0 35.31-15.809 35.31-35.31 0-19.501-15.809-35.31-35.31-35.31zM759.172 274.891h-494.345c-19.501 0-35.31 15.809-35.31 35.31 0 19.501 15.809 35.31 35.31 35.31h494.345c19.501-0 35.31-15.809 35.31-35.31 0-19.501-15.809-35.31-35.31-35.31z"  horiz-adv-x="1024" />

    
    <glyph glyph-name="shezhi" unicode="&#58904;" d="M661.63712-21.73952c-16.27648 0.00512-32.10752 6.72768-42.3168 18.00704-13.92128 15.26272-58.03008 54.95296-94.14144 54.95296-35.85536 0-80.64512-39.92064-93.51168-53.89824-10.19392-11.08992-25.90208-17.69984-42.01984-17.69984-7.68 0-14.9248 1.46944-21.53984 4.37248l-1.15712 0.50688-109.7472 61.36832-1.09056 0.76288c-19.97312 13.98272-27.57632 41.344-17.67936 63.63648 0.0768 0.16384 10.12736 23.35232 10.12736 44.48768 0 64.13824-52.18816 116.33664-116.33664 116.33664h-3.88608l-0.70656-0.01536c-18.37568 0-33.33632 16.32256-38.12352 41.58976-0.37888 2.0224-9.35936 49.93536-9.35936 87.68512 0 37.75488 8.97536 85.67296 9.35936 87.69536 4.8384 25.58464 20.12672 42.01472 38.82496 41.5744h3.8912c64.14336 0 116.33664 52.18816 116.33664 116.33152 0 21.13024-10.04032 44.3136-10.14784 44.544-9.89184 22.26688-2.23744 49.61792 17.83296 63.55968l1.13664 0.78848 115.8144 63.62624 1.20832 0.512c6.52288 2.78016 13.66528 4.18816 21.23264 4.18816 16.08704 0 31.8208-6.47168 42.112-17.31584 13.71136-14.35136 57.0368-51.68128 92.11392-51.68128 34.7392 0 77.80352 36.59264 91.4688 50.69312 10.22976 10.61888 25.86112 16.98304 41.7792 16.98304 7.72096 0 14.99648-1.46432 21.632-4.34176l1.17248-0.512 111.86176-62.14656 1.11104-0.77312c20.01408-13.96736 27.63264-41.32352 17.73056-63.62624-0.07168-0.16896-10.12736-23.35744-10.12736-44.4928 0-64.14336 52.18816-116.33152 116.33664-116.33152h3.8912c18.67776 0.41472 33.98144-15.98976 38.82496-41.5744 0.384-2.02752 9.35936-49.93536 9.35936-87.69024s-8.97536-85.67296-9.36448-87.69024c-4.8384-25.58464-20.1472-41.95328-38.82496-41.56928h-3.88608c-64.14336 0-116.33664-52.19328-116.33664-116.34176 0-21.13024 10.04544-44.30336 10.14272-44.53376 9.8816-22.25664 2.24256-49.6128-17.792-63.5648l-1.11616-0.78848-113.75616-62.86848-1.18272-0.512c-6.51776-2.816-13.62944-4.23424-21.15072-4.23424z m-3.456 53.59104c0.512-0.32768 1.95072-0.896 3.456-0.896l0.17408 0.00512 106.27584 58.74176c-2.56512 5.95456-14.29504 34.88256-14.29504 65.0496 0 90.22976 71.0656 164.17792 160.16896 168.80128 1.28 7.08096 8.23808 46.91968 8.23808 76.8s-6.95808 69.69856-8.23808 76.8c-89.09824 4.62848-160.16896 78.57152-160.16896 168.80128 0 30.21312 11.77088 59.17696 14.3104 65.09056l-104.55552 58.0864c-0.11776 0.00512-0.27136 0.01536-0.44032 0.01536-1.78176 0-3.44576-0.65024-3.9936-1.024-1.76128-1.80736-16.91136-17.17248-38.6816-32.4864-32.2304-22.66624-62.69952-34.16576-90.57792-34.16576-28.13952 0-58.85952 11.7248-91.2896 34.8416-21.90336 15.61088-37.13024 31.27296-38.89152 33.11104-0.55808 0.37888-2.24256 1.04448-4.03968 1.04448a7.9872 7.9872 0 0 1-0.37376-0.01024L286.96064 710.97856c2.59584-6.03136 14.2848-34.90816 14.2848-65.024 0-90.22464-71.0656-164.1728-160.16896-168.80128-1.28-7.08608-8.23808-46.91456-8.23808-76.8 0-29.88032 6.95808-69.69856 8.24832-76.79488 89.09312-4.62848 160.15872-78.58176 160.15872-168.8064 0-30.27456-11.81184-59.28448-14.32576-65.1264l102.5024-57.31328c0.06144-0.01024 0.14336-0.01024 0.2304-0.01024 1.49504 0 2.91328 0.54784 3.42016 0.87552 1.92 2.05824 17.22368 18.26304 39.27552 34.432 32.86528 24.0896 64.1024 36.3008 92.83072 36.3008 29.00992 0 60.48256-12.44672 93.5424-36.99712 22.17984-16.4608 37.55008-32.9728 39.45984-35.06176z m-132.62336 214.16448c-85.4272 0-154.92608 69.504-154.92608 154.92608 0 85.4272 69.49888 154.92608 154.92608 154.92608 85.4272 0 154.9312-69.49888 154.9312-154.92608 0-85.42208-69.50912-154.92608-154.9312-154.92608z m0 257.15712c-56.3712 0-102.22592-45.85984-102.22592-102.22592 0-56.37632 45.85984-102.23616 102.22592-102.23616s102.23104 45.85984 102.23104 102.23616c0 56.36608-45.85984 102.22592-102.23104 102.22592z"  horiz-adv-x="1024" />

    
    <glyph glyph-name="weixin" unicode="&#58910;" d="M690.665 605.417c11.584 0 23.024-0.851 34.404-2.122-30.91 143.967-184.816 250.915-360.507 250.915-196.401 0-357.302-133.871-357.302-303.862 0-98.124 53.525-178.701 142.989-241.196l-35.734-107.484 124.877 62.638c44.718-8.853 80.566-17.937 125.168-17.937 11.207 0 22.329 0.548 33.363 1.414-6.991 23.889-11.035 48.906-11.035 74.857 0.002 156.099 134.038 282.775 303.776 282.775zM498.538 702.286c26.896 0 44.718-17.693 44.718-44.583 0-26.779-17.822-44.715-44.718-44.715-26.779 0-53.643 17.937-53.643 44.715 0.001 26.892 26.865 44.583 53.643 44.583zM248.494 612.986c-26.78 0-53.817 17.937-53.817 44.715 0 26.892 27.038 44.583 53.817 44.583 26.778 0 44.601-17.693 44.601-44.583 0-26.778-17.823-44.715-44.601-44.715zM1016.739 326.944c0 142.841-142.93 259.279-303.484 259.279-169.999 0-303.89-116.439-303.89-259.279 0-143.099 133.891-259.276 303.89-259.276 35.588 0 71.495 8.985 107.228 17.937l97.985-53.669-26.866 89.285c71.727 53.801 125.136 125.148 125.136 205.723zM614.749 371.646c-17.794 0-35.761 17.692-35.761 35.745 0 17.807 17.968 35.732 35.761 35.732 27.011 0 44.718-17.925 44.718-35.732 0-18.053-17.708-35.745-44.718-35.745zM811.267 371.646c-17.68 0-35.501 17.692-35.501 35.745 0 17.807 17.822 35.732 35.501 35.732 26.779 0 44.716-17.925 44.716-35.732 0.001-18.053-17.937-35.745-44.716-35.745z"  horiz-adv-x="1024" />

    
    <glyph glyph-name="guanbi1" unicode="&#59023;" d="M925.993 541.62c-24.183 57.178-58.8 108.522-102.884 152.608s-95.427 78.7-152.607 102.885c-59.215 25.045-122.098 37.744-186.856 37.744-64.804 0-127.688-12.699-186.903-37.744-57.18-24.185-108.524-58.8-152.609-102.885-44.085-44.086-78.7-95.429-102.885-152.608C16.203 482.404 3.503 419.52 3.503 354.69c0-64.804 12.7-127.688 37.746-186.903 24.185-57.18 58.8-108.524 102.885-152.61 44.085-44.083 95.43-78.698 152.609-102.883 59.216-25.047 122.099-37.746 186.903-37.746 64.758 0 127.64 12.7 186.857 37.746 57.18 24.185 108.523 58.8 152.607 102.885 44.084 44.084 78.7 95.428 102.884 152.608 25.048 59.215 37.747 122.099 37.747 186.902 0 64.832-12.7 127.714-37.748 186.93zM483.646-59.294c-228.272 0-413.986 185.711-413.986 413.984 0 228.3 185.714 414.012 413.986 414.012 228.225 0 413.937-185.713 413.937-414.012 0-228.273-185.712-413.984-413.937-413.984z m149.56 615.402l-0.022-0.023-153.846-154.14-154.136 153.846c-13.347 13.321-34.96 13.308-48.273-0.004l-0.024-0.024c-13.328-13.354-13.307-34.985 0.046-48.313L431.09 353.604 277.245 199.468c-13.329-13.354-13.307-34.985 0.064-48.33 13.347-13.322 34.959-13.309 48.29 0.023l0.023 0.023L479.466 305.32 633.6 151.476c13.347-13.322 34.96-13.309 48.29 0.022a0.254 0.254 0 0 1 0.023 0.023c13.313 13.335 13.29 34.967-0.063 48.296L527.714 353.663 681.56 507.8c13.328 13.354 13.31 34.984-0.046 48.314-13.363 13.339-34.976 13.326-48.308-0.005z"  horiz-adv-x="1024" />

    
    <glyph glyph-name="fanhui" unicode="&#59022;" d="M806.726346 821.158074L326.345609 384.870255l478.060057-438.608499c16.244759-16.244759 16.244759-44.092918 0-60.337677-16.244759-16.244759-44.092918-16.244759-60.337677 0L233.518414 352.380737c-9.28272 9.28272-11.603399 20.886119-11.6034 32.489518 0 11.603399 2.32068 23.206799 11.6034 32.489518L744.067989 883.816431c16.244759 16.244759 44.092918 16.244759 60.337677 0 18.565439-18.565439 18.565439-44.092918 2.32068-62.658357z"  horiz-adv-x="1024" />

    
    <glyph glyph-name="jian" unicode="&#58913;" d="M76.893 321.128h870.214V446.872H76.893z"  horiz-adv-x="1024" />

    
    <glyph glyph-name="quanbudingdan" unicode="&#58926;" d="M606.676739 872.709953h-217.016558c-26.671628 0-47.866047-23.813953-47.866047-53.224186C341.794134 789.956465 355.653855 776.930233 382.206414 776.930233h214.325581c25.290419 0 58.24893 13.026233 58.24893 42.555534-0.11907 29.410233-21.456372 53.224186-48.104186 53.224186zM834.67153 824.55814h-95.255814c1.119256-5.810605-3.429209 0.857302-3.429209-5.072373 0-44.794047-32.315535-88.897488-70.77507-88.897488H333.173483c-40.507535 0-72.846884 44.103442-72.846883 88.897488 0 5.929674 1.666977-0.738233 2.810046 5.072373H144.066879C56.145762 824.55814 48.811065 777.763721 48.811065 705.488372v-714.418605c0-77.609674 33.887256-119.069767 119.069767-119.069767h666.790698c85.301581 0 119.069767 32.125023 119.069767 119.069767V705.488372c0 72.275349 9.882791 119.069767-71.44186 119.069768h-47.627907z m-95.255814-690.604652H263.136646c-17.360372 0-36.482977 17.765209-36.482977 35.220838C226.653669 186.48707 245.776274 205.395349 263.136646 205.395349h476.27907c17.360372 0 19.956093-17.550884 21.194418-36.221023 0-17.455628-11.906977-38.769116-29.267348-38.769117L739.415716 133.953488z m0 190.511628H263.136646c-17.360372 0-28.314791 14.169302-28.314791 31.624931C234.821855 373.52186 245.776274 395.906977 263.136646 395.906977h476.27907c17.360372 0 28.124279-21.146791 29.362604-39.81693 0-17.455628-18.265302-36.149581-35.506604-36.149582L739.415716 324.465116z m-6.144 190.154419H263.184274c-17.360372 0-28.362419 18.67014-28.362419 36.125767C234.821855 568.177116 245.776274 586.418605 263.136646 586.418605h476.27907c17.360372 0 28.124279-16.979349 29.362604-35.673303 0-17.455628-18.265302-36.125767-35.506604-36.125767z"  horiz-adv-x="1024" />

    
    <glyph glyph-name="jifen" unicode="&#59221;" d="M512 396.4928c291.84 0 512 94.3104 512 219.3408S803.9424 835.072 512 835.072C220.16 835.072 0 740.7616 0 615.7312c0-124.928 220.16-219.2384 512-219.2384z m0 383.1808c269.1072 0 456.704-86.4256 456.704-163.9424 0-77.5168-187.4944-163.9424-456.704-163.9424-269.1072 0-456.704 86.4256-456.704 163.9424 0 77.6192 187.5968 163.9424 456.704 163.9424z m0-615.424c291.1232 0 510.5664 93.696 510.5664 217.9072 0 32.768-15.872 63.2832-43.7248 90.7264-0.2048 0.2048-0.3072 0.4096-0.512 0.6144-0.2048 0.2048-0.3072 0.4096-0.512 0.6144l-0.1024-0.1024c-4.5056 4.096-10.3424 6.7584-16.896 6.7584-13.9264 0-25.1904-11.264-25.1904-25.1904 0-7.3728 3.2768-13.824 8.2944-18.432l-0.1024-0.1024c16.7936-16.896 26.3168-37.5808 26.3168-54.6816 0-78.2336-188.1088-165.376-458.0352-165.376S54.0672 304.128 54.0672 382.3616c0 19.456 5.4272 36.1472 26.9312 55.0912 0.3072 0.2048 0.512 0.512 0.7168 0.7168 0.2048 0.1024 0.3072 0.3072 0.4096 0.4096l-0.1024 0.1024c4.096 4.5056 6.7584 10.3424 6.7584 16.9984 0 13.9264-11.264 25.1904-25.1904 25.1904-6.9632 0-13.312-2.8672-17.8176-7.3728l-0.1024 0.1024C17.408 446.0544 1.536 415.3344 1.536 382.2592 1.4336 257.8432 220.8768 164.2496 512 164.2496z m466.6368 77.824c-0.2048 0.2048-0.3072 0.4096-0.512 0.6144l-0.1024-0.1024c-4.5056 4.096-10.3424 6.7584-16.896 6.7584-13.9264 0-25.1904-11.264-25.1904-25.1904 0-7.3728 3.2768-13.824 8.2944-18.432l-0.1024-0.1024c16.7936-16.896 26.3168-37.5808 26.3168-54.6816 0-78.2336-188.1088-165.376-458.0352-165.376S54.3744 72.704 54.3744 150.9376c0 19.456 5.4272 36.1472 26.9312 55.0912 0.3072 0.2048 0.512 0.512 0.7168 0.7168 0.2048 0.1024 0.3072 0.3072 0.4096 0.4096l-0.1024 0.1024c4.096 4.5056 6.7584 10.3424 6.7584 16.9984 0 13.9264-11.264 25.1904-25.1904 25.1904-6.9632 0-13.312-2.8672-17.8176-7.3728l-0.1024 0.1024c-28.2624-27.5456-44.1344-58.2656-44.1344-91.3408C1.6384 26.624 221.184-67.072 512.3072-67.072S1022.8736 26.624 1022.8736 150.8352c0 32.768-15.872 63.2832-43.7248 90.7264-0.2048 0.2048-0.3072 0.4096-0.512 0.512z"  horiz-adv-x="1024" />

    
    <glyph glyph-name="yiwancheng1" unicode="&#58990;" d="M947.2 384C947.2 624.3584 752.3584 819.2 512 819.2S76.8 624.3584 76.8 384s194.8416-435.2 435.2-435.2 435.2 194.8416 435.2 435.2zM0 384C0 666.7648 229.2352 896 512 896s512-229.2352 512-512-229.2352-512-512-512S0 101.2352 0 384zM427.072 196.672a38.4 38.4 0 0 1 54.2976 0l275.3792 275.3792a38.4 38.4 0 1 1-54.2976 54.2976L427.072 250.9696h54.2976L321.5488 410.7904a38.4 38.4 0 1 1-54.2976-54.3104l159.8208-159.808z"  horiz-adv-x="1024" />

    
    <glyph glyph-name="dianhua" unicode="&#58952;" d="M921.6 153.6C921.6 0 851.2 0 512 0c-339.2 0-409.6 0-409.6 153.6C102.4 320 288 652.8 512 652.8c224 0 409.6-332.8 409.6-499.2zM512 582.4c-96 0-172.8-76.8-172.8-172.8 0-96 76.8-172.8 172.8-172.8 96 0 172.8 76.8 172.8 172.8 0 96-76.8 172.8-172.8 172.8z m-358.4-128C224 569.6 345.6 691.2 512 691.2c166.4 0 300.8-134.4 358.4-236.8 32-51.2 89.6-44.8 115.2 0 19.2 32 70.4 320-473.6 320S19.2 480 38.4 454.4c38.4-51.2 102.4-25.6 115.2 0z"  horiz-adv-x="1024" />

    
    <glyph glyph-name="gouwu" unicode="&#58886;" d="M1071.80344 795.361179c-2.515971 52.835381-47.80344 93.090909-100.638821 93.090909H264.176904C211.341523 888.452088 166.054054 848.19656 163.538084 795.361179L115.734644-22.329238c-2.515971-25.159705 7.547912-50.31941 25.159705-67.931204 17.611794-17.611794 40.255528-27.675676 67.931204-27.675676H1031.547912c25.159705 0 50.31941 10.063882 67.931203 27.675676 17.611794 17.611794 25.159705 42.771499 25.159706 67.931204L1071.80344 795.361179z m-7.547912-852.914005c-7.547912-7.547912-20.127764-12.579853-32.707616-12.579852H208.825553c-12.579853 0-22.643735 5.031941-32.707617 12.579852-7.547912 7.547912-12.579853 20.127764-12.579852 32.707617L211.341523 792.845209c2.515971 25.159705 25.159705 47.80344 52.835381 47.80344h706.987715c27.675676 0 50.31941-20.127764 52.835381-47.80344l50.31941-817.690418c2.515971-12.579853-2.515971-25.159705-10.063882-32.707617zM820.206388 740.009828c-12.579853 0-25.159705-10.063882-25.159705-25.159705 0-98.12285-77.995086-176.117936-176.117936-176.117936s-176.117936 77.995086-176.117936 176.117936c0 12.579853-10.063882 25.159705-25.159705 25.159705-12.579853 0-25.159705-10.063882-25.159706-25.159705 0-123.282555 100.638821-223.921376 223.921376-223.921376s223.921376 100.638821 223.921376 223.921376c2.515971 15.095823-7.547912 25.159705-20.127764 25.159705z"  horiz-adv-x="1237" />

    
    <glyph glyph-name="tibidizhiguanli-caidan" unicode="&#58912;" d="M910.336-14.848h-793.6c-41.472 0-78.336 22.528-98.304 59.392-18.944 34.816-16.384 77.312 6.144 110.592l139.776 271.872h93.184c13.824 0 25.088-11.264 25.088-25.088s-11.264-25.088-25.088-25.088H195.584l-127.488-247.296-1.024-1.536c-12.288-17.92-14.336-40.448-4.096-58.88 11.264-20.992 30.72-32.768 53.76-32.768h793.088c22.016 0 41.984 12.288 52.224 31.744 8.704 19.968 6.144 42.496-6.144 59.904l-1.024 1.536-1.024 1.536-126.464 244.736h-57.344c-13.824 0-25.088 11.264-25.088 25.088s11.264 25.088 25.088 25.088h88.064l139.776-270.848c22.016-31.744 26.112-73.216 10.24-109.056l-0.512-1.024c-18.432-36.864-55.808-59.904-97.28-59.904z m-389.632 181.76c-17.92 0-35.84 8.704-47.616 23.04l-1.536 1.536-1.536 2.048c-77.312 110.08-127.488 183.296-150.528 217.6l-1.024 1.536c-25.6 39.424-38.912 83.456-38.912 130.048 0 64.512 25.088 124.928 70.656 170.496 45.568 45.568 105.984 70.656 170.496 70.656 132.608 0 240.64-108.032 240.64-240.64 0-43.008-12.8-87.552-35.328-125.44l-1.536-2.56-2.048-2.048c-10.24-14.336-94.72-135.68-152.064-218.624-10.24-17.408-29.184-27.648-49.664-27.648z m-10.24 56.832l1.536-1.536c2.048-2.56 6.144-4.608 8.704-4.608 3.584 0 6.144 1.536 7.168 3.072l1.024 1.536c1.536 2.048 148.992 215.04 155.136 222.72l0.512 0.512c17.408 29.696 26.624 64 26.624 97.28 0 104.96-85.504 189.952-189.952 189.952-104.96 0-189.952-85.504-189.952-189.952 0-36.864 10.24-71.168 30.208-102.4l0.512-1.024c22.016-34.304 72.192-106.496 148.48-215.552z m9.216 198.144c-66.56 0-120.32 53.76-120.32 120.32s53.76 120.32 120.32 120.32S640 608.768 640 542.208c0-32.768-12.8-62.976-35.328-85.504-22.528-22.528-52.736-34.816-84.992-34.816z m0 189.952c-38.4 0-69.632-31.232-69.632-69.632s31.232-69.632 69.632-69.632c38.912 0 69.632 30.72 69.632 69.632 0 38.4-31.232 69.632-69.632 69.632z"  horiz-adv-x="1024" />

    
    <glyph glyph-name="daifahuo1" unicode="&#58965;" d="M434.8 600.7v-285c0-11.2-11.2-22.4-22.3-22.4l-78.2 55.9-78.3-55.8c-11.2 0-22.4 11.2-22.4 22.4v285H99.5C82.7 600.8 66 584 66 567.3v-525.2c0-16.8 16.8-33.5 33.5-33.5h826.9c16.8 0 33.5 16.8 33.5 33.5V567.2c0 16.8-16.8 33.5-33.5 33.5H434.8z m491.7 156.4H105.1c-22.4 0-39.1-29.8-39.1-59.7 0-29.8 16.8-59.7 33.5-59.7h821.4c16.8 0 33.5 29.8 33.5 59.7 5.6 29.9-11.2 59.7-27.9 59.7"  horiz-adv-x="1024" />

    
    <glyph glyph-name="dengdai" unicode="&#59013;" d="M933.096 896H90.326m421.427-1018.118c-136.705 0-265.234 52.882-361.882 148.87C53.211 122.848-0.002 250.55 0.021 386.425c0 135.86 53.246 263.582 149.928 359.644C246.592 842.085 375.122 894.978 511.842 894.978c136.767 0 265.28-52.888 361.962-148.91 199.558-198.339 199.537-520.965 0-719.226-96.704-96.04-225.29-148.96-362.05-148.96z m0.095 950.816c-118.926 0-230.672-45.983-314.76-129.497-84.073-83.492-130.374-194.607-130.374-312.778-0.022-118.188 46.257-229.28 130.303-312.81 84.058-83.483 195.849-129.51 314.735-129.51 118.943 0 230.786 46.067 314.882 129.604 173.532 172.414 173.532 453.02 0 625.493C742.56 782.716 630.769 828.698 511.848 828.698z m199.38-482.918H494.68V562.329c0 23.94-19.374 43.313-43.313 43.313-23.94 0-43.308-19.374-43.308-43.313v-259.86c0-23.935 19.368-43.31 43.308-43.31h259.86c23.94 0 43.314 19.375 43.314 43.31 0.001 23.938-19.38 43.31-43.312 43.31z m0 0"  horiz-adv-x="1024" />

    
    <glyph glyph-name="daifukuan" unicode="&#59364;" d="M605.1 546.9H1024V709.8c0 77.1-62.5 139.6-139.6 139.6H139.6C62.5 849.5 0 786.9 0 709.8v-651.6c0-77.1 62.5-139.6 139.6-139.6h744.7c77.1 0 139.6 62.5 139.6 139.6V221.1H605.1c-51.4 0-93.1 41.7-93.1 93.1V453.8c0 51.4 41.7 93.1 93.1 93.1zM651.6 384m-69.8 0a69.8 69.8 0 1 1 139.6 0 69.8 69.8 0 1 1-139.6 0Z"  horiz-adv-x="1024" />

    
    <glyph glyph-name="xianxingqiaquan" unicode="&#58927;" d="M933.76 738.816c24.064 0 43.712-21.248 43.712-35.072v-163.264c0-3.2 0-7.36-0.192-9.536a37.376 37.376 0 0 0-4.288-4.032c-42.24-16.768-124.864-53.952-113.6-146.176 1.152-82.88 46.528-119.296 114.688-146.88l2.368-1.92c0.128-0.448 1.024-3.2 1.024-11.2v-156.48c0-21.952-22.272-35.072-43.776-35.072H90.304c-24.128 0-43.776 21.248-43.776 35.072v156.352c0 0.32 0.448 7.936 7.552 12.16C89.6 246.656 171.52 279.232 171.52 384c0 74.688-63.36 123.264-124.48 144.64-0.576 4.288-0.576 12.416-0.576 18.56V703.808c0 12.992 20.096 30.272 47.36 35.072h839.808m0 46.528H90.304C41.6 778.56 0 744.512 0 703.744V547.2c0-27.2 0-47.616 27.776-61.248 41.664-13.568 97.28-47.616 97.28-102.016 0-74.88-55.616-95.232-90.304-108.8a62.144 62.144 0 0 1-34.752-54.464v-156.48c0-40.768 41.664-81.6 90.24-81.6h843.52c48.576 0 90.24 33.984 90.24 81.6V220.8c0 27.2-6.912 40.832-27.776 54.4-69.44 27.2-90.24 54.4-90.24 108.8-7.04 47.68 20.8 74.88 90.24 102.08 27.776 20.48 27.776 34.048 27.776 54.4V703.808c0 40.768-41.664 81.6-90.24 81.6zM708.992 410.816H553.856v-73.216h155.136v-44.288H553.856v-173.696h-44.288V293.312H334.656v44.288h174.848V410.88H334.72v44.352H458.24L358.4 554.368l31.36 31.424 131.392-130.624h21.12l131.392 130.624 31.296-31.36-99.84-99.264h103.872v-44.352z"  horiz-adv-x="1024" />

    
    <glyph glyph-name="tuwenguanli" unicode="&#58888;" d="M336.841839 437.895099h-215.578777A121.263062 121.263062 0 0 0 0 559.158161v215.578777A121.263062 121.263062 0 0 0 121.263062 896h215.578777A121.263062 121.263062 0 0 0 458.104901 774.736938v-215.578777a121.263062 121.263062 0 0 0-121.263062-121.263062z m-215.578777 377.26286A40.421021 40.421021 0 0 1 80.842041 774.736938v-215.578777A40.421021 40.421021 0 0 1 121.263062 518.73714h215.578777a40.421021 40.421021 0 0 1 40.421021 40.421021v215.578777A40.421021 40.421021 0 0 1 336.841839 815.157959zM902.736129 437.895099h-215.578777a121.263062 121.263062 0 0 0-121.263062 121.263062v215.578777A121.263062 121.263062 0 0 0 687.157352 896h215.578777A121.263062 121.263062 0 0 0 1023.999192 774.736938v-215.578777a121.263062 121.263062 0 0 0-121.263063-121.263062z m-215.578777 377.26286A40.421021 40.421021 0 0 1 646.736332 774.736938v-215.578777a40.421021 40.421021 0 0 1 40.42102-40.421021h215.578777a40.421021 40.421021 0 0 1 40.421021 40.421021v215.578777A40.421021 40.421021 0 0 1 902.736129 815.157959zM336.841839-127.999192h-215.578777A121.263062 121.263062 0 0 0 0-6.736129v215.578777A121.263062 121.263062 0 0 0 121.263062 330.10571h215.578777a121.263062 121.263062 0 0 0 121.263062-121.263062v-215.578777a121.263062 121.263062 0 0 0-121.263062-121.263063z m-215.578777 377.26286A40.421021 40.421021 0 0 1 80.842041 208.842648v-215.578777A40.421021 40.421021 0 0 1 121.263062-47.15715h215.578777a40.421021 40.421021 0 0 1 40.421021 40.421021v215.578777a40.421021 40.421021 0 0 1-40.421021 40.42102zM794.946741-127.999192a63.595739 63.595739 0 0 0-45.271543 18.59367l-165.187238 165.187238a63.865213 63.865213 0 0 0 0 90.273613l165.187238 165.187238a63.865213 63.865213 0 0 0 90.273613 0l165.187238-165.187238a63.865213 63.865213 0 0 0 0-90.273613l-165.187238-165.187238a63.595739 63.595739 0 0 0-45.00207-18.59367z m-141.204099 229.052451l141.204099-141.204099 141.204099 141.204099-141.204099 141.204099z"  horiz-adv-x="1024" />

    
    <glyph glyph-name="tuwenguanli1" unicode="&#58890;" d="M339.340857 444.430961h-212.503077A119.532981 119.532981 0 0 0 7.304799 563.963942v212.503077A119.532981 119.532981 0 0 0 126.83778 896h212.503077A119.532981 119.532981 0 0 0 458.873838 776.467019v-212.503077a119.532981 119.532981 0 0 0-119.532981-119.532981z m-212.503077 371.880385A39.844327 39.844327 0 0 1 86.993453 776.467019v-212.503077A39.844327 39.844327 0 0 1 126.83778 524.119615h212.503077a39.844327 39.844327 0 0 1 39.844327 39.844327v212.503077A39.844327 39.844327 0 0 1 339.340857 816.311346zM233.089318-127.999203a62.688408 62.688408 0 0 0-44.625646 18.32839L25.633189 53.15967a62.954037 62.954037 0 0 0 0 88.985664l162.830483 162.830483a62.954037 62.954037 0 0 0 88.985664 0l162.830483-162.830483a62.954037 62.954037 0 0 0 0-88.985664l-162.830483-162.830483a62.688408 62.688408 0 0 0-44.360018-18.32839z m-139.189515 225.784519l139.189515-139.189515L372.278834 99.113461 233.089318 236.974832zM538.562492 789.748461l478.131924 0 0-79.688654-478.131924 0 0 79.688654ZM538.562492 417.868076l478.131924 0 0-79.688654-478.131924 0 0 79.688654ZM538.562492 45.987691l478.131924 0 0-79.688654-478.131924 0 0 79.688654Z"  horiz-adv-x="1024" />

    
    <glyph glyph-name="shouye" unicode="&#58891;" d="M17.91013 367.894699a13.440105 13.440105 0 0 0-9.964216 4.402793 26.416759 26.416759 0 0 0 0 37.77133L479.044777 874.911084a51.674888 51.674888 0 0 0 12.049749 11.354572 55.150777 55.150777 0 0 0 31.746456 9.73249 55.845955 55.845955 0 0 0 31.051278-9.964216 55.845955 55.845955 0 0 0 11.122845-9.037312l472.720945-466.927796a26.416759 26.416759 0 0 0 0-37.77133 11.818024 11.818024 0 0 0-9.037312-3.939341 55.382503 55.382503 0 0 0-27.807115 10.891119L524.231337 847.567422 75.609892 413.312986l-31.746456-31.283004a41.710672 41.710672 0 0 0-25.953306-14.135283zM624.336949-127.535389V169.305557a53.528695 53.528695 0 0 1-53.760421 52.601791H475.105435a53.528695 53.528695 0 0 1-53.760421-53.065243v-296.377494h-174.026191a98.48353 98.48353 0 0 0-99.178708 97.788352v440.279311a25.258129 25.258129 0 0 0 50.516258 0v-435.18134a53.528695 53.528695 0 0 1 53.760421-53.296969H370.828756V175.562157a98.48353 98.48353 0 0 0 99.178708 97.788353h105.667035a98.715256 98.715256 0 0 0 99.178708-97.788353v-253.276467h118.180236a53.528695 53.528695 0 0 1 53.760421 53.29697V410.068822a25.373992 25.373992 0 0 0 50.747984 0v-440.279311a98.715256 98.715256 0 0 0-99.178708-97.788352z"  horiz-adv-x="1046" />

    
    <glyph glyph-name="wode" unicode="&#58892;" d="M929.948953-128a32.341849 32.341849 0 0 0-32.104041 32.579656 388.102183 388.102183 0 0 1-149.818857 309.150024 34.482118 34.482118 0 0 0-11.890386 45.421272 32.341849 32.341849 0 0 0 25.683233 12.603809 31.15281 31.15281 0 0 0 19.262425-6.420808 451.834649 451.834649 0 0 0 174.788666-360.040874c0-20.689271-9.987924-33.293079-25.92104-33.293079zM512.358614 895.286577A298.210869 298.210869 0 0 1 216.050207 594.935439a302.491407 302.491407 0 0 1 153.623781-263.490943 451.834649 451.834649 0 0 1-301.777984-428.053878c0-16.64654 7.372039-30.201579 23.780771-30.201579a28.06131 28.06131 0 0 1 29.725964 30.201579 392.144914 392.144914 0 0 0 390.955875 391.431491 297.973061 297.973061 0 0 1 293.93033 300.11333A298.210869 298.210869 0 0 1 512.358614 895.286577z m0-546.957734A245.417557 245.417557 0 0 0 268.367903 594.935439a243.03948 243.03948 0 1 0 485.841152 0 245.417557 245.417557 0 0 0-241.850441-247.320019z"  horiz-adv-x="1024" />

    
    <glyph glyph-name="shangpinfenlei" unicode="&#58893;" d="M913.047967 850.871196h-194.477721a94.994887 94.994887 0 0 1-97.238861-97.238861v-194.477721a94.994887 94.994887 0 0 1 97.238861-97.23886h194.477721a105.466764 105.466764 0 0 1 97.23886 104.220112V753.632335a94.994887 94.994887 0 0 1-97.23886 97.238861z m55.600682-291.467252a53.606038 53.606038 0 0 0-55.600682-48.61943h-194.477721a54.852691 54.852691 0 0 0-55.600682 55.600682V753.632335a59.839299 59.839299 0 0 0 55.600682 55.600682h194.477721a59.839299 59.839299 0 0 0 55.600682-55.600682zM1012.03214-119.273436l-84.77234 84.77234-1.745313-1.495982a216.668128 216.668128 0 0 0-130.399805-48.12077 212.678841 212.678841 0 1 0 212.678841 212.678841 216.917458 216.917458 0 0 0-48.120769-130.399805l-1.495983-1.745313 84.77234-84.77234a27.426345 27.426345 0 0 0 6.233261-32.911614c-8.726564-12.715851-30.916971-4.238617-37.150232 1.994643z m-217.166788 417.129779a169.046019 169.046019 0 1 1 169.046019-169.046019 171.289993 171.289993 0 0 1-169.046019 169.046019zM364.770392 846.133918a51.860726 51.860726 0 0 0 51.860726-51.860726v-263.043584a51.860726 51.860726 0 0 0-51.860726-51.860726H101.976138a51.860726 51.860726 0 0 0-51.860725 51.860726V794.273192A51.860726 51.860726 0 0 0 101.976138 846.133918h262.794254m0 49.866082H101.976138A101.976138 101.976138 0 0 1 0 794.273192v-263.043584a101.976138 101.976138 0 0 1 101.726808-101.726808h263.043584a101.976138 101.976138 0 0 1 101.726808 101.726808V794.273192A101.976138 101.976138 0 0 1 364.770392 896zM364.770392 290.1271a51.860726 51.860726 0 0 0 51.860726-51.860726v-262.046262a51.860726 51.860726 0 0 0-51.860726-51.860726H101.976138A51.860726 51.860726 0 0 0 49.866082-23.779888V238.266374a51.860726 51.860726 0 0 0 51.860726 51.860726h263.043584m0 49.866082H101.976138a101.976138 101.976138 0 0 1-101.726808-101.726808v-262.046262a101.976138 101.976138 0 0 1 101.726808-101.726808h262.794254a101.976138 101.976138 0 0 1 101.976138 101.726808V238.266374a101.976138 101.976138 0 0 1-101.726808 101.726808z"  horiz-adv-x="1052" />

    
    <glyph glyph-name="chanpinzhongxin" unicode="&#58894;" d="M165.089201-127.752118a156.909223 156.909223 0 0 0-156.661341 156.413459v20.822077a24.788187 24.788187 0 1 0 49.576373 0v-20.822077a106.589204 106.589204 0 0 1 107.084968-106.09344h694.069232a106.341322 106.341322 0 0 1 106.09344 106.09344v545.340111a105.349794 105.349794 0 0 1-31.233115 74.364561l-2.974583 2.974582a105.597676 105.597676 0 0 1-71.885742 30.241588h-694.069232a106.341322 106.341322 0 0 1-106.09344-106.093439v-406.278383a24.788187 24.788187 0 0 0-49.576374 0V574.745098a156.909223 156.909223 0 0 0 155.669814 156.413459h694.069232a155.17405 155.17405 0 0 0 107.580731-43.131445l2.974583-2.7267a155.669814 155.669814 0 0 0 45.858146-110.555314v-545.340111a156.909223 156.909223 0 0 0-156.41346-157.157105zM279.362742 485.755507m-45.362382 0a45.362382 45.362382 0 1 1 90.724764 0 45.362382 45.362382 0 1 1-90.724764 0ZM744.63701 485.755507m-45.362382 0a45.362382 45.362382 0 1 1 90.724764 0 45.362382 45.362382 0 1 1-90.724764 0ZM741.910309 564.33406a24.788187 24.788187 0 0 0-24.788187 23.053013v4.957638a288.534495 288.534495 0 0 1-59.243766 176.244008 189.381748 189.381748 0 0 1-146.993948 77.091262h-3.470347a189.381748 189.381748 0 0 1-146.993948-77.091262 288.534495 288.534495 0 0 1-59.243766-176.244008v-2.974583a24.788187 24.788187 0 1 0-49.576374 0v2.974583a339.846042 339.846042 0 0 0 70.398451 207.477124A238.958122 238.958122 0 0 0 507.909825 896h4.213992a238.958122 238.958122 0 0 0 186.159283-96.178165 339.846042 339.846042 0 0 0 70.398451-207.477124v-4.957638a24.788187 24.788187 0 0 0-24.788187-23.053013z"  horiz-adv-x="1024" />

    
    </font>
</defs>
</svg>
